<mxfile host="www.draw.io" modified="2019-11-25T11:08:07.885Z" agent="Mozilla/5.0 (Windows NT 10.0; Win64; x64) AppleWebKit/537.36 (KHTML, like Gecko) Chrome/78.0.3904.108 Safari/537.36" etag="7d2V91uV_eg0CbA6J6cT" version="12.3.0" type="github" pages="2">
  <diagram name="Page-1" id="5f0bae14-7c28-e335-631c-24af17079c00">
    <mxGraphModel dx="2011" dy="1044" grid="1" gridSize="10" guides="1" tooltips="1" connect="1" arrows="1" fold="1" page="1" pageScale="1" pageWidth="1100" pageHeight="850" background="#ffffff" math="0" shadow="0">
      <root>
        <mxCell id="0"/>
        <mxCell id="1" parent="0"/>
        <mxCell id="SmBIhGTIv5TSYw2NaxfZ-8" value="" style="edgeStyle=orthogonalEdgeStyle;rounded=0;orthogonalLoop=1;jettySize=auto;html=1;dashed=1;startArrow=block;startFill=1;endArrow=none;endFill=0;" edge="1" parent="1" source="39150e848f15840c-1" target="39150e848f15840c-5">
          <mxGeometry relative="1" as="geometry"/>
        </mxCell>
        <mxCell id="39150e848f15840c-1" value="&lt;span style=&quot;color: rgb(156 , 220 , 254) ; font-family: &amp;#34;consolas&amp;#34; , &amp;#34;courier new&amp;#34; , monospace ; font-size: 14px ; white-space: pre ; background-color: rgb(30 , 30 , 30)&quot;&gt;TriggerFactory&lt;/span&gt;" style="verticalAlign=top;align=left;spacingTop=8;spacingLeft=2;spacingRight=12;shape=cube;size=10;direction=south;fontStyle=4;html=1;rounded=0;shadow=0;comic=0;labelBackgroundColor=none;strokeWidth=1;fontFamily=Verdana;fontSize=12;fillColor=#ffe6cc;strokeColor=#d79b00;" parent="1" vertex="1">
          <mxGeometry x="70" y="200" width="620" height="600" as="geometry"/>
        </mxCell>
        <mxCell id="39150e848f15840c-3" value="ObjectTrigger.trigger&lt;br&gt;" style="verticalAlign=top;align=left;spacingTop=8;spacingLeft=2;spacingRight=12;shape=cube;size=10;direction=south;fontStyle=4;html=1;rounded=0;shadow=0;comic=0;labelBackgroundColor=none;strokeWidth=1;fontFamily=Verdana;fontSize=12;fillColor=#ffe6cc;strokeColor=#d79b00;" parent="1" vertex="1">
          <mxGeometry x="280" y="30" width="500" height="150" as="geometry"/>
        </mxCell>
        <mxCell id="39150e848f15840c-4" value="&lt;div style=&quot;color: rgb(212 , 212 , 212) ; background-color: rgb(30 , 30 , 30) ; font-family: &amp;#34;consolas&amp;#34; , &amp;#34;courier new&amp;#34; , monospace ; font-size: 14px ; line-height: 19px ; white-space: pre&quot;&gt;&lt;span style=&quot;color: #4ec9b0&quot;&gt;&amp;lt;&amp;lt;TriggerHandler&amp;gt;&amp;gt;&lt;/span&gt;&lt;/div&gt;&lt;div style=&quot;color: rgb(212 , 212 , 212) ; background-color: rgb(30 , 30 , 30) ; font-family: &amp;#34;consolas&amp;#34; , &amp;#34;courier new&amp;#34; , monospace ; font-size: 14px ; line-height: 19px ; white-space: pre&quot;&gt;&lt;div&gt;&lt;span style=&quot;color: #c586c0&quot;&gt;if&lt;/span&gt;(&lt;span style=&quot;color: #4ec9b0&quot;&gt;Trigger&lt;/span&gt;.&lt;span style=&quot;color: #4ec9b0&quot;&gt;isBefore&lt;/span&gt;){&amp;nbsp;&amp;nbsp;&amp;nbsp;&amp;nbsp;&amp;nbsp;&amp;nbsp;&amp;nbsp;&amp;nbsp;&amp;nbsp;&amp;nbsp;&amp;nbsp;&amp;nbsp;&amp;nbsp;&lt;/div&gt;&lt;div&gt;&amp;nbsp;&amp;nbsp;&amp;nbsp;&amp;nbsp;&amp;nbsp;&amp;nbsp;&amp;nbsp;&amp;nbsp;&amp;nbsp;&amp;nbsp;&amp;nbsp;&amp;nbsp;&lt;span style=&quot;color: #c586c0&quot;&gt;if&lt;/span&gt;(&lt;span style=&quot;color: #4ec9b0&quot;&gt;Trigger&lt;/span&gt;.&lt;span style=&quot;color: #4ec9b0&quot;&gt;isDelete&lt;/span&gt;){&lt;/div&gt;&lt;div&gt;&amp;nbsp;&amp;nbsp;&amp;nbsp;&amp;nbsp;&amp;nbsp;&amp;nbsp;&amp;nbsp;&amp;nbsp;&amp;nbsp;&amp;nbsp;&amp;nbsp;&amp;nbsp;&amp;nbsp;&amp;nbsp;&amp;nbsp;&amp;nbsp;&lt;span style=&quot;color: #dcdcaa&quot;&gt;beforeDelete&lt;/span&gt;(&lt;span style=&quot;color: #4ec9b0&quot;&gt;Trigger&lt;/span&gt;.&lt;span style=&quot;color: #4ec9b0&quot;&gt;old&lt;/span&gt;);&lt;/div&gt;&lt;div&gt;&amp;nbsp;&amp;nbsp;&amp;nbsp;&amp;nbsp;&amp;nbsp;&amp;nbsp;&amp;nbsp;&amp;nbsp;&amp;nbsp;&amp;nbsp;&amp;nbsp;&amp;nbsp;&amp;nbsp;&amp;nbsp;&amp;nbsp;&amp;nbsp;&lt;/div&gt;&lt;div&gt;&amp;nbsp;&amp;nbsp;&amp;nbsp;&amp;nbsp;&amp;nbsp;&amp;nbsp;&amp;nbsp;&amp;nbsp;&amp;nbsp;&amp;nbsp;&amp;nbsp;&amp;nbsp;}&amp;nbsp;&lt;span style=&quot;color: #c586c0&quot;&gt;else&lt;/span&gt;&amp;nbsp;&lt;span style=&quot;color: #c586c0&quot;&gt;if&lt;/span&gt;&amp;nbsp;(&lt;span style=&quot;color: #4ec9b0&quot;&gt;Trigger&lt;/span&gt;.&lt;span style=&quot;color: #4ec9b0&quot;&gt;isInsert&lt;/span&gt;){&lt;/div&gt;&lt;div&gt;&amp;nbsp;&amp;nbsp;&amp;nbsp;&amp;nbsp;&amp;nbsp;&amp;nbsp;&amp;nbsp;&amp;nbsp;&amp;nbsp;&amp;nbsp;&amp;nbsp;&amp;nbsp;&amp;nbsp;&amp;nbsp;&amp;nbsp;&amp;nbsp;&lt;span style=&quot;color: #dcdcaa&quot;&gt;beforeInsert&lt;/span&gt;(&lt;span style=&quot;color: #4ec9b0&quot;&gt;Trigger&lt;/span&gt;.&lt;span style=&quot;color: #4ec9b0&quot;&gt;new&lt;/span&gt;);&lt;/div&gt;&lt;div&gt;&amp;nbsp;&amp;nbsp;&amp;nbsp;&amp;nbsp;&amp;nbsp;&amp;nbsp;&amp;nbsp;&amp;nbsp;&amp;nbsp;&amp;nbsp;&amp;nbsp;&amp;nbsp;&amp;nbsp;&amp;nbsp;&amp;nbsp;&amp;nbsp;&lt;/div&gt;&lt;div&gt;&amp;nbsp;&amp;nbsp;&amp;nbsp;&amp;nbsp;&amp;nbsp;&amp;nbsp;&amp;nbsp;&amp;nbsp;&amp;nbsp;&amp;nbsp;&amp;nbsp;&amp;nbsp;}&amp;nbsp;&lt;span style=&quot;color: #c586c0&quot;&gt;else&lt;/span&gt;&amp;nbsp;&lt;span style=&quot;color: #c586c0&quot;&gt;if&lt;/span&gt;&amp;nbsp;(&lt;span style=&quot;color: #4ec9b0&quot;&gt;Trigger&lt;/span&gt;.&lt;span style=&quot;color: #4ec9b0&quot;&gt;isUpdate&lt;/span&gt;){&lt;/div&gt;&lt;div&gt;&amp;nbsp;&amp;nbsp;&amp;nbsp;&amp;nbsp;&amp;nbsp;&amp;nbsp;&amp;nbsp;&amp;nbsp;&amp;nbsp;&amp;nbsp;&amp;nbsp;&amp;nbsp;&amp;nbsp;&amp;nbsp;&amp;nbsp;&amp;nbsp;&lt;span style=&quot;color: #dcdcaa&quot;&gt;beforeUpdate&lt;/span&gt;(&lt;span style=&quot;color: #4ec9b0&quot;&gt;Trigger&lt;/span&gt;.&lt;span style=&quot;color: #4ec9b0&quot;&gt;old&lt;/span&gt;,&amp;nbsp;&lt;span style=&quot;color: #4ec9b0&quot;&gt;Trigger&lt;/span&gt;.&lt;span style=&quot;color: #4ec9b0&quot;&gt;new&lt;/span&gt;);&lt;/div&gt;&lt;div&gt;&amp;nbsp;&amp;nbsp;&amp;nbsp;&amp;nbsp;&amp;nbsp;&amp;nbsp;&amp;nbsp;&amp;nbsp;&amp;nbsp;&amp;nbsp;&amp;nbsp;&amp;nbsp;&amp;nbsp;&amp;nbsp;&amp;nbsp;&amp;nbsp;&lt;/div&gt;&lt;div&gt;&amp;nbsp;&amp;nbsp;&amp;nbsp;&amp;nbsp;&amp;nbsp;&amp;nbsp;&amp;nbsp;&amp;nbsp;&amp;nbsp;&amp;nbsp;&amp;nbsp;&amp;nbsp;}&lt;/div&gt;&lt;div&gt;&amp;nbsp;&amp;nbsp;&amp;nbsp;&amp;nbsp;&amp;nbsp;&amp;nbsp;&amp;nbsp;&amp;nbsp;}&amp;nbsp;&lt;span style=&quot;color: #c586c0&quot;&gt;else&lt;/span&gt;&amp;nbsp;{&lt;/div&gt;&lt;div&gt;&amp;nbsp;&amp;nbsp;&amp;nbsp;&amp;nbsp;&amp;nbsp;&amp;nbsp;&amp;nbsp;&amp;nbsp;&amp;nbsp;&amp;nbsp;&amp;nbsp;&amp;nbsp;&lt;span style=&quot;color: #c586c0&quot;&gt;if&lt;/span&gt;(&lt;span style=&quot;color: #4ec9b0&quot;&gt;Trigger&lt;/span&gt;.&lt;span style=&quot;color: #4ec9b0&quot;&gt;isDelete&lt;/span&gt;){&lt;/div&gt;&lt;div&gt;&amp;nbsp;&amp;nbsp;&amp;nbsp;&amp;nbsp;&amp;nbsp;&amp;nbsp;&amp;nbsp;&amp;nbsp;&amp;nbsp;&amp;nbsp;&amp;nbsp;&amp;nbsp;&amp;nbsp;&amp;nbsp;&amp;nbsp;&amp;nbsp;&lt;span style=&quot;color: #dcdcaa&quot;&gt;afterDelete&lt;/span&gt;(&lt;span style=&quot;color: #4ec9b0&quot;&gt;Trigger&lt;/span&gt;.&lt;span style=&quot;color: #4ec9b0&quot;&gt;old&lt;/span&gt;);&lt;/div&gt;&lt;div&gt;&amp;nbsp;&amp;nbsp;&amp;nbsp;&amp;nbsp;&amp;nbsp;&amp;nbsp;&amp;nbsp;&amp;nbsp;&amp;nbsp;&amp;nbsp;&amp;nbsp;&amp;nbsp;&amp;nbsp;&amp;nbsp;&amp;nbsp;&amp;nbsp;&lt;/div&gt;&lt;div&gt;&amp;nbsp;&amp;nbsp;&amp;nbsp;&amp;nbsp;&amp;nbsp;&amp;nbsp;&amp;nbsp;&amp;nbsp;&amp;nbsp;&amp;nbsp;&amp;nbsp;&amp;nbsp;}&amp;nbsp;&lt;span style=&quot;color: #c586c0&quot;&gt;else&lt;/span&gt;&amp;nbsp;&lt;span style=&quot;color: #c586c0&quot;&gt;if&lt;/span&gt;(&lt;span style=&quot;color: #4ec9b0&quot;&gt;Trigger&lt;/span&gt;.&lt;span style=&quot;color: #4ec9b0&quot;&gt;isInsert&lt;/span&gt;){&lt;/div&gt;&lt;div&gt;&amp;nbsp;&amp;nbsp;&amp;nbsp;&amp;nbsp;&amp;nbsp;&amp;nbsp;&amp;nbsp;&amp;nbsp;&amp;nbsp;&amp;nbsp;&amp;nbsp;&amp;nbsp;&amp;nbsp;&amp;nbsp;&amp;nbsp;&amp;nbsp;&lt;span style=&quot;color: #dcdcaa&quot;&gt;afterInsert&lt;/span&gt;(&lt;span style=&quot;color: #4ec9b0&quot;&gt;Trigger&lt;/span&gt;.&lt;span style=&quot;color: #4ec9b0&quot;&gt;new&lt;/span&gt;);&lt;/div&gt;&lt;div&gt;&amp;nbsp;&amp;nbsp;&amp;nbsp;&amp;nbsp;&amp;nbsp;&amp;nbsp;&amp;nbsp;&amp;nbsp;&amp;nbsp;&amp;nbsp;&amp;nbsp;&amp;nbsp;&amp;nbsp;&amp;nbsp;&amp;nbsp;&amp;nbsp;&lt;/div&gt;&lt;div&gt;&amp;nbsp;&amp;nbsp;&amp;nbsp;&amp;nbsp;&amp;nbsp;&amp;nbsp;&amp;nbsp;&amp;nbsp;&amp;nbsp;&amp;nbsp;&amp;nbsp;&amp;nbsp;}&amp;nbsp;&lt;span style=&quot;color: #c586c0&quot;&gt;else&lt;/span&gt;&amp;nbsp;&lt;span style=&quot;color: #c586c0&quot;&gt;if&lt;/span&gt;(&lt;span style=&quot;color: #4ec9b0&quot;&gt;Trigger&lt;/span&gt;.&lt;span style=&quot;color: #4ec9b0&quot;&gt;isUpdate&lt;/span&gt;){&lt;/div&gt;&lt;div&gt;&amp;nbsp;&amp;nbsp;&amp;nbsp;&amp;nbsp;&amp;nbsp;&amp;nbsp;&amp;nbsp;&amp;nbsp;&amp;nbsp;&amp;nbsp;&amp;nbsp;&amp;nbsp;&amp;nbsp;&amp;nbsp;&amp;nbsp;&amp;nbsp;&lt;span style=&quot;color: #dcdcaa&quot;&gt;afterUpdate&lt;/span&gt;(&lt;span style=&quot;color: #4ec9b0&quot;&gt;Trigger&lt;/span&gt;.&lt;span style=&quot;color: #4ec9b0&quot;&gt;old&lt;/span&gt;,&amp;nbsp;&lt;span style=&quot;color: #4ec9b0&quot;&gt;Trigger&lt;/span&gt;.&lt;span style=&quot;color: #4ec9b0&quot;&gt;new&lt;/span&gt;);&lt;/div&gt;&lt;div&gt;&amp;nbsp;&amp;nbsp;&amp;nbsp;&amp;nbsp;&amp;nbsp;&amp;nbsp;&amp;nbsp;&amp;nbsp;&amp;nbsp;&amp;nbsp;&amp;nbsp;&amp;nbsp;&amp;nbsp;&amp;nbsp;&amp;nbsp;&amp;nbsp;&lt;/div&gt;&lt;div&gt;&amp;nbsp;&amp;nbsp;&amp;nbsp;&amp;nbsp;&amp;nbsp;&amp;nbsp;&amp;nbsp;&amp;nbsp;&amp;nbsp;&amp;nbsp;&amp;nbsp;&amp;nbsp;}&lt;/div&gt;&lt;/div&gt;&lt;div style=&quot;color: rgb(212 , 212 , 212) ; background-color: rgb(30 , 30 , 30) ; font-family: &amp;#34;consolas&amp;#34; , &amp;#34;courier new&amp;#34; , monospace ; font-size: 14px ; line-height: 19px ; white-space: pre&quot;&gt;&lt;span style=&quot;font-family: &amp;#34;consolas&amp;#34; , &amp;#34;courier new&amp;#34; , monospace&quot;&gt;&amp;nbsp;&amp;nbsp;&amp;nbsp;&amp;nbsp;&amp;nbsp;&amp;nbsp;&amp;nbsp;&amp;nbsp;}&lt;/span&gt;&lt;/div&gt;" style="html=1;rounded=0;shadow=0;comic=0;labelBackgroundColor=none;strokeWidth=1;fontFamily=Verdana;fontSize=12;align=left;fillColor=#fff2cc;strokeColor=#d6b656;imageVerticalAlign=top;" parent="1" vertex="1">
          <mxGeometry x="80" y="375" width="155" height="290" as="geometry"/>
        </mxCell>
        <mxCell id="39150e848f15840c-5" value="[ObjectName]&lt;span style=&quot;color: rgb(78 , 201 , 176) ; background-color: rgb(30 , 30 , 30) ; font-family: &amp;#34;consolas&amp;#34; , &amp;#34;courier new&amp;#34; , monospace ; font-size: 14px ; white-space: pre&quot;&gt;TriggerHandler&lt;/span&gt;" style="shape=component;align=left;spacingLeft=36;rounded=0;shadow=0;comic=0;labelBackgroundColor=none;strokeWidth=1;fontFamily=Verdana;fontSize=12;html=1;fillColor=#d5e8d4;strokeColor=#82b366;" parent="1" vertex="1">
          <mxGeometry x="770" y="570" width="250" height="60" as="geometry"/>
        </mxCell>
        <mxCell id="SmBIhGTIv5TSYw2NaxfZ-1" style="edgeStyle=orthogonalEdgeStyle;rounded=0;orthogonalLoop=1;jettySize=auto;html=1;exitX=1;exitY=0.5;exitDx=0;exitDy=0;startArrow=block;startFill=1;dashed=1;" edge="1" parent="1" source="39150e848f15840c-6" target="c3uF3QvEi6aPW-FLnp8e-1">
          <mxGeometry relative="1" as="geometry">
            <Array as="points">
              <mxPoint x="610" y="231"/>
              <mxPoint x="610" y="231"/>
            </Array>
          </mxGeometry>
        </mxCell>
        <mxCell id="SmBIhGTIv5TSYw2NaxfZ-7" value="" style="edgeStyle=orthogonalEdgeStyle;rounded=0;orthogonalLoop=1;jettySize=auto;html=1;dashed=1;startArrow=none;startFill=0;" edge="1" parent="1" source="39150e848f15840c-6" target="SmBIhGTIv5TSYw2NaxfZ-6">
          <mxGeometry relative="1" as="geometry"/>
        </mxCell>
        <mxCell id="39150e848f15840c-6" value="" style="ellipse;whiteSpace=wrap;html=1;rounded=0;shadow=0;comic=0;labelBackgroundColor=none;strokeWidth=1;fontFamily=Verdana;fontSize=12;align=center;" parent="1" vertex="1">
          <mxGeometry x="200" y="220" width="20" height="20" as="geometry"/>
        </mxCell>
        <mxCell id="SmBIhGTIv5TSYw2NaxfZ-6" value="" style="ellipse;whiteSpace=wrap;html=1;rounded=0;shadow=0;comic=0;labelBackgroundColor=none;strokeWidth=1;fontFamily=Verdana;fontSize=12;align=center;" vertex="1" parent="1">
          <mxGeometry x="200" y="320" width="20" height="20" as="geometry"/>
        </mxCell>
        <mxCell id="39150e848f15840c-10" value="&lt;div style=&quot;color: rgb(212 , 212 , 212) ; background-color: rgb(30 , 30 , 30) ; font-family: &amp;#34;consolas&amp;#34; , &amp;#34;courier new&amp;#34; , monospace ; font-size: 14px ; line-height: 19px ; white-space: pre&quot;&gt;&lt;span style=&quot;color: #9cdcfe&quot;&gt;TriggerFactory&lt;/span&gt;.&lt;span style=&quot;color: #dcdcaa&quot;&gt;createHandler&lt;/span&gt;(&lt;span style=&quot;color: #9cdcfe&quot;&gt;[ObjectName]&lt;/span&gt;.&lt;span style=&quot;color: #9cdcfe&quot;&gt;sObjectType&lt;/span&gt;);&lt;/div&gt;" style="shape=component;align=left;spacingLeft=36;rounded=0;shadow=0;comic=0;labelBackgroundColor=none;strokeWidth=1;fontFamily=Verdana;fontSize=12;html=1;" parent="1" vertex="1">
          <mxGeometry x="300" y="80" width="450" height="60" as="geometry"/>
        </mxCell>
        <mxCell id="39150e848f15840c-11" style="edgeStyle=none;rounded=0;html=1;dashed=1;labelBackgroundColor=none;startArrow=none;startFill=0;startSize=8;endArrow=open;endFill=0;endSize=16;fontFamily=Verdana;fontSize=12;exitX=0.053;exitY=1.003;exitDx=0;exitDy=0;exitPerimeter=0;" parent="1" source="39150e848f15840c-10" target="39150e848f15840c-6" edge="1">
          <mxGeometry relative="1" as="geometry"/>
        </mxCell>
        <mxCell id="c3uF3QvEi6aPW-FLnp8e-1" value="Trigger_Settings__c.Object&lt;br&gt;" style="verticalAlign=top;align=left;spacingTop=8;spacingLeft=2;spacingRight=12;shape=cube;size=10;direction=south;fontStyle=4;html=1;rounded=0;shadow=0;comic=0;labelBackgroundColor=none;strokeWidth=1;fontFamily=Verdana;fontSize=12" parent="1" vertex="1">
          <mxGeometry x="750" y="220" width="330" height="220" as="geometry"/>
        </mxCell>
        <mxCell id="c3uF3QvEi6aPW-FLnp8e-3" value="&lt;div style=&quot;font-family: &amp;#34;consolas&amp;#34; , &amp;#34;courier new&amp;#34; , monospace ; font-size: 14px ; line-height: 19px ; white-space: pre&quot;&gt;Bypass_All_Triggers__c&lt;/div&gt;" style="html=1;rounded=0;shadow=0;comic=0;labelBackgroundColor=none;strokeWidth=1;fontFamily=Verdana;fontSize=12;align=center;fillColor=#d5e8d4;strokeColor=#82b366;" parent="1" vertex="1">
          <mxGeometry x="770" y="275" width="270" height="40" as="geometry"/>
        </mxCell>
        <mxCell id="c3uF3QvEi6aPW-FLnp8e-7" value="&lt;div style=&quot;font-family: &amp;#34;consolas&amp;#34; , &amp;#34;courier new&amp;#34; , monospace ; font-size: 14px ; line-height: 19px ; white-space: pre&quot;&gt;&lt;div style=&quot;color: rgb(212 , 212 , 212) ; background-color: rgb(30 , 30 , 30) ; font-family: &amp;#34;consolas&amp;#34; , &amp;#34;courier new&amp;#34; , monospace ; line-height: 19px&quot;&gt;Bypass_Account__c&lt;/div&gt;&lt;/div&gt;" style="html=1;rounded=0;shadow=0;comic=0;labelBackgroundColor=none;strokeWidth=1;fontFamily=Verdana;fontSize=12;align=center;fillColor=#ffe6cc;strokeColor=#d79b00;" parent="1" vertex="1">
          <mxGeometry x="770" y="335" width="270" height="40" as="geometry"/>
        </mxCell>
        <mxCell id="c3uF3QvEi6aPW-FLnp8e-8" value="&lt;div style=&quot;font-family: &amp;#34;consolas&amp;#34; , &amp;#34;courier new&amp;#34; , monospace ; font-size: 14px ; line-height: 19px ; white-space: pre&quot;&gt;&lt;div style=&quot;color: rgb(212 , 212 , 212) ; background-color: rgb(30 , 30 , 30) ; font-family: &amp;#34;consolas&amp;#34; , &amp;#34;courier new&amp;#34; , monospace ; line-height: 19px&quot;&gt;Bypass_Case__c&lt;/div&gt;&lt;/div&gt;" style="html=1;rounded=0;shadow=0;comic=0;labelBackgroundColor=none;strokeWidth=1;fontFamily=Verdana;fontSize=12;align=center;fillColor=#ffe6cc;strokeColor=#d79b00;" parent="1" vertex="1">
          <mxGeometry x="780" y="345" width="270" height="40" as="geometry"/>
        </mxCell>
        <mxCell id="c3uF3QvEi6aPW-FLnp8e-9" value="&lt;div style=&quot;font-family: &amp;#34;consolas&amp;#34; , &amp;#34;courier new&amp;#34; , monospace ; font-size: 14px ; line-height: 19px ; white-space: pre&quot;&gt;Bypass_[ObjectName]__c&lt;/div&gt;" style="html=1;rounded=0;shadow=0;comic=0;labelBackgroundColor=none;strokeWidth=1;fontFamily=Verdana;fontSize=12;align=center;fillColor=#ffe6cc;strokeColor=#d79b00;" parent="1" vertex="1">
          <mxGeometry x="790" y="355" width="270" height="40" as="geometry"/>
        </mxCell>
        <mxCell id="c3uF3QvEi6aPW-FLnp8e-11" value="Framework" style="rounded=0;whiteSpace=wrap;html=1;fillColor=#d5e8d4;strokeColor=#82b366;" parent="1" vertex="1">
          <mxGeometry x="940" y="20" width="120" height="60" as="geometry"/>
        </mxCell>
        <mxCell id="c3uF3QvEi6aPW-FLnp8e-12" value="Developer" style="rounded=0;whiteSpace=wrap;html=1;fillColor=#ffe6cc;strokeColor=#d79b00;" parent="1" vertex="1">
          <mxGeometry x="940" y="100" width="120" height="60" as="geometry"/>
        </mxCell>
        <mxCell id="SmBIhGTIv5TSYw2NaxfZ-12" value="" style="edgeStyle=orthogonalEdgeStyle;rounded=0;orthogonalLoop=1;jettySize=auto;html=1;dashed=1;startArrow=block;startFill=1;endArrow=none;endFill=0;" edge="1" parent="1" source="SmBIhGTIv5TSYw2NaxfZ-9" target="39150e848f15840c-5">
          <mxGeometry relative="1" as="geometry"/>
        </mxCell>
        <mxCell id="SmBIhGTIv5TSYw2NaxfZ-9" value="&lt;div style=&quot;background-color: rgb(30 , 30 , 30) ; font-family: &amp;#34;consolas&amp;#34; , &amp;#34;courier new&amp;#34; , monospace ; font-size: 14px ; line-height: 19px ; white-space: pre&quot;&gt;&lt;span style=&quot;color: rgb(212 , 212 , 212)&quot;&gt;&lt;span style=&quot;color: #569cd6&quot;&gt;public&lt;/span&gt;&amp;nbsp;&lt;span style=&quot;color: #569cd6&quot;&gt;override&lt;/span&gt;&amp;nbsp;&lt;span style=&quot;color: #569cd6&quot;&gt;void&lt;/span&gt;&amp;nbsp;&lt;span style=&quot;color: #dcdcaa&quot;&gt;beforeUpdate&lt;/span&gt;(&lt;/span&gt;&lt;font color=&quot;#9cdcfe&quot;&gt;...&lt;/font&gt;&lt;font color=&quot;#d4d4d4&quot;&gt;)&lt;/font&gt;&lt;/div&gt;" style="shape=process;whiteSpace=wrap;html=1;backgroundOutline=1;fillColor=#d5e8d4;strokeColor=#82b366;" vertex="1" parent="1">
          <mxGeometry x="720" y="690" width="350" height="60" as="geometry"/>
        </mxCell>
      </root>
    </mxGraphModel>
  </diagram>
  <diagram id="1FOfw-Wgqsou5x1l8daO" name="Page-2">
    <mxGraphModel dx="1408" dy="731" grid="1" gridSize="10" guides="1" tooltips="1" connect="1" arrows="1" fold="1" page="1" pageScale="1" pageWidth="850" pageHeight="1100" math="0" shadow="0">
      <root>
        <mxCell id="fBGPBTz4strAgZ28GDx8-0"/>
        <mxCell id="fBGPBTz4strAgZ28GDx8-1" parent="fBGPBTz4strAgZ28GDx8-0"/>
        <mxCell id="vLqJpBdTqgfyIeW11VFm-0" value="Block" style="verticalAlign=top;align=left;spacingTop=8;spacingLeft=2;spacingRight=12;shape=cube;size=10;direction=south;fontStyle=4;html=1;rounded=0;shadow=0;comic=0;labelBackgroundColor=none;strokeWidth=1;fontFamily=Verdana;fontSize=12" parent="fBGPBTz4strAgZ28GDx8-1" vertex="1">
          <mxGeometry x="120" y="70" width="330" height="220" as="geometry"/>
        </mxCell>
        <mxCell id="vLqJpBdTqgfyIeW11VFm-1" value="Block" style="verticalAlign=top;align=left;spacingTop=8;spacingLeft=2;spacingRight=12;shape=cube;size=10;direction=south;fontStyle=4;html=1;rounded=0;shadow=0;comic=0;labelBackgroundColor=none;strokeWidth=1;fontFamily=Verdana;fontSize=12" parent="fBGPBTz4strAgZ28GDx8-1" vertex="1">
          <mxGeometry x="530" y="70" width="330" height="220" as="geometry"/>
        </mxCell>
        <mxCell id="vLqJpBdTqgfyIeW11VFm-2" value="Block" style="verticalAlign=top;align=left;spacingTop=8;spacingLeft=2;spacingRight=12;shape=cube;size=10;direction=south;fontStyle=4;html=1;rounded=0;shadow=0;comic=0;labelBackgroundColor=none;strokeWidth=1;fontFamily=Verdana;fontSize=12" parent="fBGPBTz4strAgZ28GDx8-1" vertex="1">
          <mxGeometry x="370" y="410" width="260" height="150" as="geometry"/>
        </mxCell>
        <mxCell id="vLqJpBdTqgfyIeW11VFm-3" value="&amp;laquo;interface&amp;raquo;&lt;br&gt;&lt;b&gt;Name&lt;/b&gt;" style="html=1;rounded=0;shadow=0;comic=0;labelBackgroundColor=none;strokeWidth=1;fontFamily=Verdana;fontSize=12;align=center;" parent="fBGPBTz4strAgZ28GDx8-1" vertex="1">
          <mxGeometry x="160" y="140" width="110" height="50" as="geometry"/>
        </mxCell>
        <mxCell id="vLqJpBdTqgfyIeW11VFm-4" value="Module" style="shape=component;align=left;spacingLeft=36;rounded=0;shadow=0;comic=0;labelBackgroundColor=none;strokeWidth=1;fontFamily=Verdana;fontSize=12;html=1;" parent="fBGPBTz4strAgZ28GDx8-1" vertex="1">
          <mxGeometry x="310" y="135" width="120" height="60" as="geometry"/>
        </mxCell>
        <mxCell id="vLqJpBdTqgfyIeW11VFm-5" value="" style="ellipse;whiteSpace=wrap;html=1;rounded=0;shadow=0;comic=0;labelBackgroundColor=none;strokeWidth=1;fontFamily=Verdana;fontSize=12;align=center;" parent="fBGPBTz4strAgZ28GDx8-1" vertex="1">
          <mxGeometry x="360" y="230" width="20" height="20" as="geometry"/>
        </mxCell>
        <mxCell id="vLqJpBdTqgfyIeW11VFm-6" value="Module" style="shape=component;align=left;spacingLeft=36;rounded=0;shadow=0;comic=0;labelBackgroundColor=none;strokeWidth=1;fontFamily=Verdana;fontSize=12;html=1;" parent="fBGPBTz4strAgZ28GDx8-1" vertex="1">
          <mxGeometry x="560" y="135" width="120" height="60" as="geometry"/>
        </mxCell>
        <mxCell id="vLqJpBdTqgfyIeW11VFm-7" value="&amp;laquo;interface&amp;raquo;&lt;br&gt;&lt;b&gt;Name&lt;/b&gt;" style="html=1;rounded=0;shadow=0;comic=0;labelBackgroundColor=none;strokeWidth=1;fontFamily=Verdana;fontSize=12;align=center;" parent="fBGPBTz4strAgZ28GDx8-1" vertex="1">
          <mxGeometry x="720" y="140" width="110" height="50" as="geometry"/>
        </mxCell>
        <mxCell id="vLqJpBdTqgfyIeW11VFm-8" value="" style="ellipse;whiteSpace=wrap;html=1;rounded=0;shadow=0;comic=0;labelBackgroundColor=none;strokeWidth=1;fontFamily=Verdana;fontSize=12;align=center;" parent="fBGPBTz4strAgZ28GDx8-1" vertex="1">
          <mxGeometry x="620" y="230" width="20" height="20" as="geometry"/>
        </mxCell>
        <mxCell id="vLqJpBdTqgfyIeW11VFm-9" value="Module" style="shape=component;align=left;spacingLeft=36;rounded=0;shadow=0;comic=0;labelBackgroundColor=none;strokeWidth=1;fontFamily=Verdana;fontSize=12;html=1;" parent="fBGPBTz4strAgZ28GDx8-1" vertex="1">
          <mxGeometry x="440" y="460" width="120" height="60" as="geometry"/>
        </mxCell>
        <mxCell id="vLqJpBdTqgfyIeW11VFm-10" style="edgeStyle=none;rounded=0;html=1;dashed=1;labelBackgroundColor=none;startArrow=none;startFill=0;startSize=8;endArrow=open;endFill=0;endSize=16;fontFamily=Verdana;fontSize=12;" parent="fBGPBTz4strAgZ28GDx8-1" source="vLqJpBdTqgfyIeW11VFm-9" target="vLqJpBdTqgfyIeW11VFm-5" edge="1">
          <mxGeometry relative="1" as="geometry"/>
        </mxCell>
        <mxCell id="vLqJpBdTqgfyIeW11VFm-11" style="edgeStyle=none;rounded=0;html=1;dashed=1;labelBackgroundColor=none;startArrow=none;startFill=0;startSize=8;endArrow=open;endFill=0;endSize=16;fontFamily=Verdana;fontSize=12;" parent="fBGPBTz4strAgZ28GDx8-1" source="vLqJpBdTqgfyIeW11VFm-2" target="vLqJpBdTqgfyIeW11VFm-8" edge="1">
          <mxGeometry relative="1" as="geometry"/>
        </mxCell>
        <mxCell id="vLqJpBdTqgfyIeW11VFm-12" style="edgeStyle=elbowEdgeStyle;rounded=0;html=1;labelBackgroundColor=none;startArrow=none;startFill=0;startSize=8;endArrow=none;endFill=0;endSize=16;fontFamily=Verdana;fontSize=12;" parent="fBGPBTz4strAgZ28GDx8-1" source="vLqJpBdTqgfyIeW11VFm-8" target="vLqJpBdTqgfyIeW11VFm-6" edge="1">
          <mxGeometry relative="1" as="geometry"/>
        </mxCell>
        <mxCell id="vLqJpBdTqgfyIeW11VFm-13" style="edgeStyle=elbowEdgeStyle;rounded=0;html=1;labelBackgroundColor=none;startArrow=none;startFill=0;startSize=8;endArrow=none;endFill=0;endSize=16;fontFamily=Verdana;fontSize=12;" parent="fBGPBTz4strAgZ28GDx8-1" source="vLqJpBdTqgfyIeW11VFm-5" target="vLqJpBdTqgfyIeW11VFm-4" edge="1">
          <mxGeometry relative="1" as="geometry"/>
        </mxCell>
        <mxCell id="vLqJpBdTqgfyIeW11VFm-14" style="edgeStyle=orthogonalEdgeStyle;rounded=0;html=1;labelBackgroundColor=none;startArrow=none;startFill=0;startSize=8;endArrow=open;endFill=0;endSize=16;fontFamily=Verdana;fontSize=12;dashed=1;" parent="fBGPBTz4strAgZ28GDx8-1" source="vLqJpBdTqgfyIeW11VFm-4" target="vLqJpBdTqgfyIeW11VFm-3" edge="1">
          <mxGeometry relative="1" as="geometry">
            <Array as="points">
              <mxPoint x="350" y="220"/>
              <mxPoint x="215" y="220"/>
            </Array>
          </mxGeometry>
        </mxCell>
        <mxCell id="vLqJpBdTqgfyIeW11VFm-15" style="edgeStyle=orthogonalEdgeStyle;rounded=0;html=1;dashed=1;labelBackgroundColor=none;startArrow=none;startFill=0;startSize=8;endArrow=open;endFill=0;endSize=16;fontFamily=Verdana;fontSize=12;" parent="fBGPBTz4strAgZ28GDx8-1" source="vLqJpBdTqgfyIeW11VFm-6" target="vLqJpBdTqgfyIeW11VFm-7" edge="1">
          <mxGeometry relative="1" as="geometry"/>
        </mxCell>
        <mxCell id="vLqJpBdTqgfyIeW11VFm-16" style="edgeStyle=orthogonalEdgeStyle;rounded=0;html=1;labelBackgroundColor=none;startArrow=none;startFill=0;startSize=8;endArrow=none;endFill=0;endSize=16;fontFamily=Verdana;fontSize=12;" parent="fBGPBTz4strAgZ28GDx8-1" source="vLqJpBdTqgfyIeW11VFm-2" target="vLqJpBdTqgfyIeW11VFm-1" edge="1">
          <mxGeometry relative="1" as="geometry">
            <Array as="points">
              <mxPoint x="695" y="485"/>
            </Array>
          </mxGeometry>
        </mxCell>
        <mxCell id="vLqJpBdTqgfyIeW11VFm-17" style="edgeStyle=orthogonalEdgeStyle;rounded=0;html=1;labelBackgroundColor=none;startArrow=none;startFill=0;startSize=8;endArrow=none;endFill=0;endSize=16;fontFamily=Verdana;fontSize=12;" parent="fBGPBTz4strAgZ28GDx8-1" source="vLqJpBdTqgfyIeW11VFm-2" target="vLqJpBdTqgfyIeW11VFm-0" edge="1">
          <mxGeometry relative="1" as="geometry">
            <Array as="points">
              <mxPoint x="285" y="485"/>
            </Array>
          </mxGeometry>
        </mxCell>
      </root>
    </mxGraphModel>
  </diagram>
</mxfile>
